<svg width="45" height="44" viewBox="0 0 45 44" fill="none" xmlns="http://www.w3.org/2000/svg">
<path fill-rule="evenodd" clip-rule="evenodd" d="M10.7381 33.1012C15.5719 33.0934 17.817 30.7029 19.536 28.8725C20.6033 27.736 21.4679 26.8155 22.6233 26.8155C23.8593 26.8155 24.8527 27.8689 26.0262 29.1131C27.7193 30.9084 29.7872 33.1013 33.4998 33.1013C33.6519 33.1013 33.7977 33.0993 33.9375 33.0954C34.0531 33.0993 34.1692 33.1013 34.2857 33.1013C39.9269 33.1013 44.5 28.5282 44.5 22.887C44.5 19.0597 42.395 15.724 39.2796 13.9746C34.7373 10.676 28.7292 10.2712 22.538 10.3155C16.1365 10.3614 9.55497 10.9481 5.44679 14.1339C2.48238 15.9217 0.5 19.1728 0.5 22.887C0.5 28.5282 5.07309 33.1013 10.7143 33.1013L10.7381 33.1012ZM11.8929 28.387C15.1474 28.387 17.7857 25.7487 17.7857 22.4941C17.7857 19.2396 15.1474 16.6013 11.8929 16.6013C8.63832 16.6013 6 19.2396 6 22.4941C6 25.7487 8.63832 28.387 11.8929 28.387ZM42.1429 18.5655C42.1429 19.2165 41.6152 19.7441 40.9643 19.7441C40.3134 19.7441 39.7857 19.2165 39.7857 18.5655C39.7857 17.9146 40.3134 17.387 40.9643 17.387C41.6152 17.387 42.1429 17.9146 42.1429 18.5655ZM4.03571 19.7441C4.68662 19.7441 5.21429 19.2165 5.21429 18.5655C5.21429 17.9146 4.68662 17.387 4.03571 17.387C3.38481 17.387 2.85714 17.9146 2.85714 18.5655C2.85714 19.2165 3.38481 19.7441 4.03571 19.7441ZM42.1429 21.3155C42.1429 21.7495 41.7911 22.1013 41.3571 22.1013C40.9232 22.1013 40.5714 21.7495 40.5714 21.3155C40.5714 20.8816 40.9232 20.5298 41.3571 20.5298C41.7911 20.5298 42.1429 20.8816 42.1429 21.3155ZM3.64286 22.1013C4.0768 22.1013 4.42857 21.7495 4.42857 21.3155C4.42857 20.8816 4.0768 20.5298 3.64286 20.5298C3.20892 20.5298 2.85714 20.8816 2.85714 21.3155C2.85714 21.7495 3.20892 22.1013 3.64286 22.1013ZM39.7857 22.4941C39.7857 25.7487 37.1474 28.387 33.8929 28.387C30.6383 28.387 28 25.7487 28 22.4941C28 19.2396 30.6383 16.6013 33.8929 16.6013C37.1474 16.6013 39.7857 19.2396 39.7857 22.4941Z" fill="#6D47D3"/>
</svg>
